<svg width="21" height="19" viewBox="0 0 21 19" fill="none" xmlns="http://www.w3.org/2000/svg">
<circle cx="6.96552" cy="15.5517" r="3.03448" fill="#8563E6"/>
<circle cx="13.0345" cy="15.5517" r="3.03448" fill="#8563E6"/>
<circle cx="10" cy="10.6207" r="3.03448" fill="#8563E6"/>
<circle cx="10" cy="3.03448" r="3.03448" fill="#8563E6"/>
<circle cx="17.0345" cy="7.82757" r="3.03448" fill="#8563E6"/>
<circle cx="3.03448" cy="7.82757" r="3.03448" fill="#8563E6"/>
<path d="M9.62069 11.1897L6.96552 10.6207C6.96552 10.6207 7.10709 11.6411 6.77586 12.1379C6.44463 12.6348 5.44828 12.8966 5.44828 12.8966L7.34483 15.3621L9.62069 11.1897Z" fill="#8563E6"/>
<path d="M10.3793 11.1897L13.0345 10.6207C13.0345 10.6207 12.8929 11.6411 13.2241 12.1379C13.5554 12.6348 14.5517 12.8966 14.5517 12.8966L12.6552 15.3621L10.3793 11.1897Z" fill="#8563E6"/>
<path d="M11.5172 12.3276V18.2069C11.5172 18.2069 10.6625 17.4483 10 17.4483C9.33754 17.4483 8.48276 18.2069 8.48276 18.2069V12.7069L11.5172 12.3276Z" fill="#8563E6"/>
</svg>
